<?xml version="1.0" encoding="UTF-8"?>
<svg width="24" height="24" version="1.1" viewBox="0 0 24 24" xmlns="http://www.w3.org/2000/svg">
 <circle cx="12" cy="12" r="10" fill="none" stroke="#80cc28" stroke-linecap="square" stroke-width="2"/>
 <g fill="#80cc28" stroke-width=".46875">
  <circle transform="rotate(-30)" cx="3.4127" cy="16.407" r=".93341"/>
  <path d="m14.022 8.828-1.1657 1.4814c0.27204 0.21406 0.54349 0.47465 0.72715 0.79272 0.18365 0.31809 0.2736 0.68348 0.32296 1.0261l1.8657-0.26881c-0.079475-0.58281-0.25954-1.1503-0.57164-1.6909-0.31252-0.54059-0.71362-0.9806-1.1785-1.3407z"/>
  <path d="m16.274 5.8439-1.1657 1.4814c0.65893 0.50661 1.2676 1.1454 1.709 1.91 0.44142 0.76453 0.69031 1.6111 0.79959 2.435l1.8657-0.26881c-0.13928-1.0642-0.4785-2.1122-1.0486-3.0996-0.57006-0.98743-1.3081-1.8052-2.1601-2.4579z"/>
  <path d="m10.601 17.136a3.7337 3.7337 0 0 1-3.7337-2.5e-5 3.7337 3.7337 0 0 1-1.8668-3.2335 3.7337 3.7337 0 0 1 1.8668-3.2335l1.8668 3.2335z"/>
 </g>
</svg>
